o Bracket
v -1.4000 -1.1000 -0.4000
v 1.4000 -1.1000 -0.4000
v 1.4000 -0.7000 -0.4000
v -1.4000 -0.7000 -0.4000
v -1.4000 -1.1000 0.4000
v 1.4000 -1.1000 0.4000
v 1.4000 -0.7000 0.4000
v -1.4000 -0.7000 0.4000
v -1.4000 1.3000 -0.4000
v -0.9000 1.3000 -0.4000
v -0.9000 -0.7000 -0.4000
v -1.4000 -0.7000 -0.4000
v -1.4000 1.3000 0.4000
v -0.9000 1.3000 0.4000
v -0.9000 -0.7000 0.4000
v -1.4000 -0.7000 0.4000
f 1 2 3 4
f 5 8 7 6
f 1 5 6 2
f 2 6 7 3
f 3 7 8 4
f 4 8 5 1
f 12 11 10 9
f 13 14 15 16
f 12 16 15 11
f 11 15 14 10
f 10 14 13 9
f 9 13 16 12
