o BridgeFoundation
v -1.6000 -1.2000 -1.1000
v 1.6000 -1.2000 -1.1000
v 1.6000 -0.4000 -1.1000
v -1.6000 -0.4000 -1.1000
v -1.6000 -1.2000 1.1000
v 1.6000 -1.2000 1.1000
v 1.6000 -0.4000 1.1000
v -1.6000 -0.4000 1.1000
v -0.5000 -0.4000 -0.5000
v 0.5000 -0.4000 -0.5000
v 0.5000 1.4000 -0.5000
v -0.5000 1.4000 -0.5000
v -0.5000 -0.4000 0.5000
v 0.5000 -0.4000 0.5000
v 0.5000 1.4000 0.5000
v -0.5000 1.4000 0.5000
f 1 2 3 4
f 5 8 7 6
f 1 5 6 2
f 2 6 7 3
f 3 7 8 4
f 4 8 5 1
f 9 10 11 12
f 13 16 15 14
f 9 13 14 10
f 10 14 15 11
f 11 15 16 12
f 12 16 13 9
