o Propeller
v 0.0000 1.3000 0.0000
v 0.1800 0.9800 0.1600
v -0.1800 0.9800 0.1600
v -0.1800 0.9800 -0.1600
v 0.1800 0.9800 -0.1600
v 0.0000 -1.3000 0.0000
v 0.1800 -0.9800 0.1600
v -0.1800 -0.9800 0.1600
v -0.1800 -0.9800 -0.1600
v 0.1800 -0.9800 -0.1600
v 0.9000 0.2200 0.0500
v 2.1500 0.7000 0.1200
v 2.3500 0.1400 -0.1200
v 0.9600 -0.0800 -0.0500
v -0.9000 0.2200 -0.0500
v -2.1500 0.7000 -0.1200
v -2.3500 0.1400 0.1200
v -0.9600 -0.0800 0.0500
v 0.2200 0.9000 -0.0500
v 0.7000 2.1500 -0.1200
v 0.1400 2.3500 0.1200
v -0.0800 0.9600 0.0500
v 0.2200 -0.9000 0.0500
v 0.7000 -2.1500 0.1200
v 0.1400 -2.3500 -0.1200
v -0.0800 -0.9600 -0.0500
f 1 2 3
f 1 3 4
f 1 4 5
f 1 5 2
f 6 8 7
f 6 9 8
f 6 10 9
f 6 7 10
f 2 7 8 3
f 3 8 9 4
f 4 9 10 5
f 5 10 7 2
f 2 11 12 13 14
f 3 18 17 16 15
f 5 19 20 21 22
f 4 26 25 24 23
